<?xml version="1.0" standalone="no"?>
<!DOCTYPE svg PUBLIC "-//W3C//DTD SVG 20010904//EN"
        "http://www.w3.org/TR/2001/REC-SVG-20010904/DTD/svg10.dtd">
<svg version="1.0" xmlns="http://www.w3.org/2000/svg"
     width="2022.000000pt" height="2140.000000pt" viewBox="0 0 2022.000000 2140.000000"
     preserveAspectRatio="xMidYMid meet">

    <g transform="translate(0.000000,2140.000000) scale(0.100000,-0.100000)"
       fill="#000000" stroke="none">
        <path d="M8761 19948 c-48 -125 -3209 -8016 -3226 -8053 -38 -83 -4161 -10398
-4172 -10438 -5 -16 70 -17 1475 -17 1175 0 1481 3 1485 13 2 6 452 1130 999
2497 547 1367 1138 2846 1313 3287 176 441 323 799 326 795 3 -4 568 -1489
1255 -3299 l1249 -3293 1472 0 1471 0 -28 73 c-102 264 -2704 7125 -2707 7137
-3 11 67 43 284 129 158 63 291 118 294 123 3 5 914 372 2025 816 l2019 808 6
219 c4 121 7 634 8 1140 l1 920 -1433 3580 -1433 3580 -1337 3 -1337 2 -9 -22z
m2049 -5816 c386 -964 701 -1754 699 -1756 -2 -2 -470 -189 -1039 -416 -569
-228 -1038 -417 -1041 -422 -10 -15 -732 -299 -739 -291 -4 4 -55 134 -113
288 l-107 280 817 2038 c449 1120 817 2036 818 2035 2 -2 319 -792 705 -1756z"/>
        <path d="M14831 7815 c-690 -276 -1261 -507 -1269 -512 -12 -7 206 -558 1153
-2923 642 -1603 1170 -2921 1172 -2927 4 -10 310 -13 1484 -13 813 0 1479 3
1479 7 0 22 -2747 6873 -2755 6872 -5 0 -574 -227 -1264 -504z"/>
    </g>
</svg>
