<svg id="svg" version="1.1" xmlns="http://www.w3.org/2000/svg" xmlns:xlink="http://www.w3.org/1999/xlink" width="400"
     height="400" viewBox="0, 0, 400,400">
    <g id="svgg">
        <path id="path0"
              d="M194.052 24.106 C 189.469 25.486,177.714 30.327,175.568 31.718 C 174.603 32.344,171.759 33.958,169.249 35.304 C 166.738 36.651,162.342 39.010,159.480 40.547 C 156.617 42.083,153.773 43.745,153.160 44.240 C 152.546 44.734,148.532 46.990,144.238 49.252 C 139.944 51.514,130.409 56.631,123.048 60.624 C 115.688 64.616,107.323 69.111,104.461 70.611 C 96.283 74.897,85.240 81.114,84.015 82.122 C 82.401 83.450,64.950 93.630,63.139 94.300 C 61.645 94.852,61.612 95.301,61.765 113.046 C 61.851 123.046,61.981 140.762,62.055 152.416 L 62.189 173.606 63.994 174.543 C 67.445 176.333,91.909 187.992,106.320 194.713 C 114.294 198.433,123.160 202.670,126.022 204.129 C 155.724 219.273,197.638 240.016,211.039 246.204 C 221.183 250.887,231.352 257.166,231.080 258.578 C 230.937 259.321,226.148 262.178,218.953 265.813 C 212.414 269.117,205.725 272.689,204.089 273.751 L 201.115 275.682 188.104 268.950 C 180.948 265.248,170.743 259.808,165.428 256.861 C 160.112 253.914,147.398 247.222,137.175 241.989 C 76.890 211.128,79.189 211.953,68.401 217.309 L 62.082 220.446 61.526 233.086 C 61.220 240.037,61.125 246.628,61.314 247.731 C 61.503 248.835,61.695 260.814,61.740 274.351 L 61.823 298.964 63.674 299.668 C 64.693 300.056,68.358 302.045,71.819 304.090 C 75.281 306.134,78.327 307.807,78.590 307.807 C 80.436 307.807,153.519 343.894,176.580 356.192 C 184.349 360.336,193.216 364.734,196.283 365.965 L 201.859 368.205 205.576 366.927 C 207.621 366.224,214.480 362.882,220.818 359.500 C 232.123 353.467,257.463 340.213,278.810 329.166 C 284.740 326.098,293.941 321.211,299.257 318.307 C 304.572 315.402,315.337 309.813,323.178 305.885 L 337.434 298.743 337.684 258.480 C 337.971 212.304,338.770 217.159,330.085 212.268 C 327.180 210.632,320.896 206.833,316.119 203.825 C 306.588 197.823,301.731 195.260,287.755 188.858 C 282.631 186.510,265.892 178.382,250.558 170.794 C 235.223 163.206,220.335 156.083,217.472 154.967 C 212.444 153.005,197.566 145.974,178.602 136.599 L 169.472 132.085 176.744 127.420 C 180.743 124.854,187.438 121.188,191.622 119.272 L 199.228 115.790 203.146 117.449 C 205.300 118.361,212.081 121.810,218.214 125.112 C 231.062 132.029,238.217 135.639,251.497 141.904 C 256.716 144.366,263.742 148.039,267.110 150.066 C 270.478 152.093,275.409 154.657,278.067 155.765 C 280.725 156.872,286.708 159.802,291.362 162.275 L 299.825 166.771 309.206 162.191 C 314.366 159.672,322.770 155.841,327.881 153.677 L 337.175 149.744 337.814 122.674 L 338.454 95.604 336.526 94.067 C 333.214 91.426,302.150 74.075,287.361 66.605 C 279.591 62.681,269.387 57.434,264.684 54.946 C 259.981 52.458,251.115 47.829,244.981 44.659 C 238.848 41.489,227.254 35.485,219.218 31.317 C 203.332 23.078,200.327 22.217,194.052 24.106 M209.400 38.811 C 225.185 47.525,249.870 60.409,280.297 75.815 C 310.453 91.083,325.928 99.639,326.234 101.211 C 326.681 103.518,324.094 107.834,321.055 109.847 C 300.061 123.757,301.503 123.685,279.182 111.952 C 274.275 109.373,262.398 103.250,252.788 98.346 C 243.178 93.442,229.461 86.412,222.305 82.723 C 215.149 79.034,206.869 75.086,203.906 73.951 L 198.518 71.886 176.025 83.092 C 163.654 89.255,149.877 96.525,145.410 99.248 C 133.783 106.335,128.751 108.749,126.467 108.337 C 121.686 107.474,89.963 92.453,89.963 91.052 C 89.963 90.288,108.218 80.131,126.284 70.844 C 129.699 69.088,133.379 67.029,134.462 66.269 C 135.545 65.509,138.092 64.159,140.122 63.270 C 142.151 62.381,144.326 61.198,144.954 60.641 C 145.583 60.085,151.065 57.099,157.138 54.007 C 163.211 50.914,168.565 48.083,169.034 47.714 C 170.837 46.299,196.786 32.714,197.686 32.714 C 198.053 32.714,203.324 35.458,209.400 38.811 M86.973 105.867 C 94.138 109.298,104.517 113.940,110.037 116.183 C 120.082 120.265,142.850 131.021,178.439 148.496 C 188.866 153.617,200.911 159.401,205.204 161.350 C 220.364 168.231,224.475 170.228,256.506 186.266 C 300.750 208.420,303.472 209.817,311.524 214.508 C 315.409 216.772,320.344 219.522,322.491 220.619 L 326.394 222.615 326.394 237.892 C 326.394 246.295,326.715 254.288,327.107 255.654 C 328.245 259.622,322.513 257.390,297.026 243.936 C 279.608 234.741,215.054 202.559,207.435 199.272 C 199.444 195.824,194.224 193.347,176.208 184.454 C 167.416 180.114,158.383 175.707,156.134 174.661 C 149.490 171.571,129.470 161.349,123.048 157.768 C 99.196 144.467,84.960 137.403,76.394 134.620 L 73.606 133.714 73.573 119.831 C 73.549 109.684,73.252 105.148,72.469 102.974 C 71.880 101.338,71.393 99.916,71.387 99.814 C 71.326 98.799,76.021 100.622,86.973 105.867 M365.269 113.060 C 357.871 115.299,356.805 127.729,363.705 131.297 C 373.092 136.151,383.270 123.359,376.108 115.707 C 373.320 112.729,369.469 111.789,365.269 113.060 M362.315 175.428 C 357.470 178.382,356.897 186.237,361.212 190.552 C 365.552 194.891,375.222 192.589,377.691 186.628 C 381.308 177.895,370.809 170.248,362.315 175.428 M102.974 237.192 C 114.424 242.609,124.196 247.360,124.689 247.749 C 125.182 248.137,134.885 253.229,146.250 259.064 C 179.926 276.351,188.935 281.112,194.405 284.511 C 200.858 288.520,199.724 288.644,209.757 282.839 C 214.409 280.147,222.063 275.907,226.766 273.416 C 237.387 267.790,255.139 257.682,259.108 255.001 C 260.743 253.896,263.997 252.089,266.339 250.986 C 268.680 249.883,271.274 248.117,272.104 247.061 L 273.614 245.143 278.077 248.274 C 282.035 251.050,299.766 260.850,308.364 265.013 C 310.101 265.854,311.517 266.710,311.510 266.914 C 311.478 267.865,302.163 273.196,285.130 282.013 C 274.907 287.305,263.670 293.212,260.160 295.139 C 247.211 302.249,203.032 324.164,201.646 324.164 C 199.410 324.164,186.714 318.354,172.862 310.993 C 165.911 307.299,155.372 301.853,149.442 298.891 C 143.513 295.929,136.487 292.253,133.829 290.723 C 131.171 289.192,125.316 286.003,120.818 283.637 C 116.320 281.271,109.418 277.568,105.480 275.409 C 101.542 273.250,92.810 268.832,86.074 265.590 C 79.339 262.349,73.642 259.397,73.416 259.030 C 72.855 258.122,74.046 227.459,74.704 225.865 C 75.392 224.201,76.208 224.528,102.974 237.192 M22.570 238.150 C 16.190 243.997,20.018 254.275,28.574 254.275 C 38.433 254.275,42.248 245.561,35.303 238.906 C 30.815 234.606,26.704 234.362,22.570 238.150 M364.684 238.550 C 362.083 239.396,360.816 240.452,359.201 243.123 C 354.395 251.066,364.097 259.976,372.140 255.005 C 382.094 248.854,375.789 234.939,364.684 238.550 "
              stroke="none" fill="#000000" fill-rule="evenodd"></path>
    </g>
</svg>
